<svg xmlns="http://www.w3.org/2000/svg" width="1213" height="115" fill="none"><path stroke="#eceff2" stroke-miterlimit="10" stroke-width="8" d="m4.718 82.467 26.3-65.9c.7-1.7 2.9-1.6 3.4.2l22.4 70.7c3.4 10.8 13.2 15.2 21.7 10 9-5.6 6.1-21.7-3.5-25-19.5-6.7-35.3-.5-51.9 13.5l-8 6.8c-5.9 5-13.5-2.5-10.4-10.3Z"/><path fill="#eceff2" d="m108.406 92 26.296-62.1h13.34L174.033 92h-13.341l-6.363-15.18h-26.527L121.286 92zm23.46-26.067h18.936l-9.276-22.386h-.384zM179.81 92V27.6h12.727V92zm44.966.92q-7.437 0-12.956-2.913-5.52-2.991-8.51-8.357-2.99-5.444-2.99-12.803t2.913-12.65q2.913-5.367 8.28-8.204 5.444-2.913 12.803-2.913 7.207 0 12.344 2.76 5.213 2.76 7.973 7.897 2.76 5.136 2.76 12.266v4.294H212.51q.766 5.135 3.91 7.82 3.143 2.683 8.28 2.683 4.062 0 6.44-1.38 2.376-1.38 3.373-4.217h12.727q-1.535 7.36-7.437 11.577-5.904 4.14-15.027 4.14m-11.96-29.057h22.387q-.613-4.37-3.373-6.516-2.76-2.224-7.437-2.224t-7.667 2.224q-2.913 2.223-3.91 6.516M248.943 92l17.94-23.537L249.863 46h14.26l10.043 13.493L284.363 46h14.107l-16.944 22.463L299.39 92h-14.26l-10.964-14.72L263.05 92zm70.214.843q-8.127 0-12.727-3.91-4.6-3.986-4.6-10.426 0-6.824 4.753-10.504t13.647-3.68h13.187V62.56q0-7.437-8.894-7.437-7.743 0-9.353 5.367h-12.65q1.533-7.59 7.13-11.5t14.873-3.91q10.273 0 15.64 4.6 5.444 4.6 5.444 13.417v16.33h5.98V92h-12.88v-7.513h-3.22q-2.377 3.986-6.364 6.21-3.987 2.145-9.966 2.146m1.916-9.66q3.604 0 6.364-1.303 2.76-1.304 4.37-3.45a8.3 8.3 0 0 0 1.61-4.983v-.69h-12.574q-6.9 0-6.9 5.136 0 2.53 1.917 3.91 1.916 1.38 5.213 1.38M360.498 92V58.573h-6.287V46h12.88v7.513h3.22q2.684-3.986 6.747-6.133 4.063-2.223 10.12-2.223 9.584 0 14.796 5.29 5.29 5.213 5.29 14.03V92h-12.726V66.853q0-5.06-2.76-7.666-2.683-2.684-7.897-2.684-5.213 0-7.973 2.684-2.684 2.606-2.684 7.666V92zm76.012.92q-7.053 0-12.036-2.99-4.906-2.99-7.437-8.357-2.53-5.444-2.53-12.573 0-7.207 2.453-12.573 2.454-5.444 7.13-8.357 4.754-2.99 11.347-2.99 5.06 0 8.663 1.917 3.68 1.84 5.674 5.29h.306V27.6h12.727v51.827h6.287V92h-12.88v-7.513h-3.22a17.1 17.1 0 0 1-6.594 6.21q-4.062 2.223-9.89 2.223m2.377-11.04q5.137 0 8.127-2.837 3.066-2.913 3.066-7.973v-4.14q0-5.06-3.066-7.897-2.99-2.913-8.127-2.913-5.826 0-8.74 3.45-2.913 3.45-2.913 9.43t2.913 9.43 8.74 3.45M480.231 92V58.573h-6.287V46h12.88v9.047h3.22q1.84-4.83 5.827-7.207t8.97-2.377h3.91v11.04h-4.447q-5.98 0-8.817 3.374-2.76 3.373-2.76 8.893V92zm55.045.92q-7.436 0-12.956-2.913-5.52-2.991-8.51-8.357-2.99-5.444-2.99-12.803t2.913-12.65q2.913-5.367 8.28-8.204 5.444-2.913 12.803-2.913 7.207 0 12.344 2.76 5.213 2.76 7.973 7.897 2.76 5.136 2.76 12.266v4.294H523.01q.766 5.135 3.91 7.82 3.143 2.683 8.28 2.683 4.062 0 6.44-1.38 2.376-1.38 3.373-4.217h12.727q-1.534 7.36-7.437 11.577-5.904 4.14-15.027 4.14m-11.96-29.057h22.387q-.613-4.37-3.373-6.516-2.76-2.224-7.437-2.224t-7.667 2.224q-2.913 2.223-3.91 6.516M588.658 92V29.9h31.893q5.596 0 9.813 1.993t6.594 5.597q2.376 3.527 2.376 8.203 0 4.677-2.453 7.974-2.453 3.219-6.67 4.83v.306q3.603.92 6.287 3.067a14.9 14.9 0 0 1 4.293 5.29q1.61 3.143 1.61 7.13 0 5.29-2.607 9.277-2.606 3.986-7.206 6.21Q628.064 92 621.931 92zm12.956-11.347h18.017q4.677 0 7.207-1.993 2.53-2.07 2.53-5.903 0-3.834-2.53-5.827-2.453-1.993-7.13-1.993h-18.094zm0-25.99h17.097q3.68 0 5.597-1.686 1.993-1.764 1.993-5.06 0-3.298-1.993-4.984-1.917-1.686-5.597-1.686h-17.097zM654.528 92V58.573h-6.287V46h12.88v9.047h3.22q1.84-4.83 5.827-7.207t8.97-2.377h3.91v11.04h-4.447q-5.98 0-8.817 3.374-2.76 3.373-2.76 8.893V92zm35.684 0V46h12.727v46zm6.364-50.523q-2.913 0-4.984-1.994-1.993-2.07-1.993-4.983t1.993-4.907q2.07-2.07 4.984-2.07 2.913 0 4.906 2.07 2.07 1.995 2.07 4.907t-2.07 4.983q-1.993 1.995-4.906 1.994m38.909 51.443q-7.514 0-13.11-2.913-5.52-2.991-8.586-8.357-3.067-5.367-3.067-12.727 0-7.283 2.99-12.65 3.066-5.366 8.663-8.28t13.187-2.913q7.513 0 13.033 2.913 5.52 2.914 8.51 8.28 2.99 5.367 2.99 12.727 0 7.284-2.99 12.727-2.99 5.365-8.586 8.28-5.52 2.913-13.034 2.913m0-11.04q5.75 0 8.817-3.45 3.066-3.526 3.067-9.507 0-5.98-3.067-9.353-3.067-3.45-8.817-3.45-5.826 0-8.97 3.45-3.066 3.374-3.066 9.353 0 5.98 3.066 9.507 3.144 3.45 8.97 3.45M767.927 92V27.6h12.727V92zm59.579 0-17.71-62.1h13.646l11.194 41.86h.383l12.803-41.86h11.347l13.57 41.86h.307l11.04-41.86h13.723L880.099 92h-12.957l-13.493-43.317h-.307L840.462 92zm92.481.92q-7.437 0-12.956-2.913-5.52-2.991-8.51-8.357-2.99-5.444-2.99-12.803t2.913-12.65q2.913-5.367 8.28-8.204 5.444-2.913 12.803-2.913 7.207 0 12.344 2.76 5.213 2.76 7.973 7.897 2.76 5.136 2.76 12.266v4.294h-34.883q.766 5.135 3.91 7.82 3.143 2.683 8.28 2.683 4.062 0 6.44-1.38 2.376-1.38 3.373-4.217h12.727q-1.534 7.36-7.437 11.577-5.904 4.14-15.027 4.14m-11.96-29.057h22.387q-.613-4.37-3.373-6.516-2.76-2.224-7.437-2.224t-7.667 2.224q-2.913 2.223-3.91 6.516m71.736 29.057q-5.826 0-9.966-2.223-4.064-2.225-6.517-6.21h-3.22V92h-12.88V79.427h6.287V27.6h12.726v24.687h.307q2.07-3.45 5.673-5.29 3.603-1.917 8.664-1.917 6.669 0 11.346 2.99 4.677 2.913 7.13 8.357 2.456 5.366 2.457 12.573c0 4.753-.85 8.944-2.533 12.573q-2.53 5.367-7.437 8.357-4.906 2.99-12.037 2.99m-2.376-11.04q5.826 0 8.74-3.45 2.913-3.45 2.913-9.43t-2.913-9.43-8.74-3.45q-5.137 0-8.204 2.913-2.99 2.837-2.99 7.897v4.14q0 5.06 2.99 7.973 3.067 2.837 8.204 2.837M1032.58 92V29.9h24.45c6.75 0 12.58 1.252 17.48 3.757 4.91 2.504 8.69 6.082 11.35 10.733q3.99 6.976 3.99 16.56c0 6.338-1.36 11.832-4.07 16.483q-3.99 6.977-11.34 10.81c-4.91 2.505-10.71 3.757-17.41 3.757zm12.95-11.04h11.5c6.44 0 11.32-1.814 14.65-5.443 3.37-3.68 5.06-8.536 5.06-14.567 0-6.082-1.69-10.938-5.06-14.567-3.33-3.629-8.21-5.443-14.65-5.443h-11.5zm74.81 11.96q-7.44 0-12.96-2.913c-3.68-1.994-6.51-4.78-8.51-8.357-1.99-3.629-2.99-7.897-2.99-12.803s.97-9.124 2.92-12.65q2.91-5.367 8.28-8.204c3.62-1.942 7.89-2.913 12.8-2.913 4.8 0 8.92.92 12.34 2.76q5.22 2.76 7.98 7.897 2.76 5.136 2.76 12.266v4.294h-34.89c.51 3.424 1.82 6.03 3.91 7.82q3.15 2.683 8.28 2.683c2.71 0 4.86-.46 6.44-1.38 1.59-.92 2.71-2.326 3.38-4.217h12.72c-1.02 4.907-3.5 8.766-7.43 11.577q-5.91 4.14-15.03 4.14m-11.96-29.057h22.39c-.41-2.913-1.54-5.085-3.38-6.516-1.84-1.483-4.32-2.224-7.43-2.224-3.12 0-5.68.741-7.67 2.224-1.94 1.482-3.25 3.654-3.91 6.516M1164.1 92l-19.71-46h13.42l12.88 31.28h.31L1183.49 46h13.19l-19.7 46z"/><path fill="#4c6a92" d="M1200 79h13v13h-13z"/></svg>