<svg xmlns="http://www.w3.org/2000/svg" width="29" height="31" fill="none"><path stroke="#1e2a38" stroke-linecap="round" stroke-linejoin="round" stroke-width="3" d="M10.834 25.333c-6.667 2-6.667-3.333-9.334-4m18.667 8v-5.16a4.5 4.5 0 0 0-1.253-3.48C23.1 20.227 27.5 18.64 27.5 11.36a7.25 7.25 0 0 0-2-5 6.76 6.76 0 0 0-.12-5.027s-1.573-.466-5.213 1.974a17.84 17.84 0 0 0-9.333 0C7.194.867 5.62 1.333 5.62 1.333A6.76 6.76 0 0 0 5.5 6.36a7.25 7.25 0 0 0-2 5.04c0 7.227 4.4 8.813 8.587 9.333a4.5 4.5 0 0 0-1.253 3.44v5.16"/></svg>